<!DOCTYPE svg PUBLIC "-//W3C//DTD SVG 1.1//EN" "http://www.w3.org/Graphics/SVG/1.1/DTD/svg11.dtd">
<!-- Uploaded to: SVG Repo, www.svgrepo.com, Transformed by: SVG Repo Mixer Tools -->
<svg width="800px" height="800px" viewBox="-10 -10 120.00 120.00" xmlns="http://www.w3.org/2000/svg" fill="#000000" transform="matrix(1, 0, 0, 1, 0, 0)rotate(0)">
<g id="SVGRepo_bgCarrier" stroke-width="0"/>
<g id="SVGRepo_tracerCarrier" stroke-linecap="round" stroke-linejoin="round" stroke="#CCCCCC" stroke-width="4.8"/>
<g id="SVGRepo_iconCarrier">
<circle fill="#24283b" cx="50" cy="50" r="50"/>
<path fill="none" stroke="#ffcf24" stroke-width="8.5" stroke-miterlimit="10" stroke-dashoffset="43" stroke-linecap="square" stroke-dasharray="216,9.999999974752427e-7" d="M12.5 50.5c0 10 7 17 17 17 17 0 26-34 43-34 10 0 18 7 18 17s-8 17-18 17c-17 0-26-34-43-34-10 0-17 7-17 17z"/>
<path opacity=".15" d="M45.938 50.5l5.047 6.516s-2.141 2.797-3.5 4.25c0 0-3.621-3.552-5.746-5.583 1.308-1.402 4.199-5.183 4.199-5.183z"/>
</g>
</svg>